External Loads File
version=1
nRows=77
nColumns=13
Range=5.000000e-03-10 seconds
endheader
time 	forceRightX 	forceRightY 	forceRightZ 	pointRightX 	pointRightY 	pointRightZ 	forceLeftX 	forceLeftY 	forceLeftZ 	pointLeftX 	pointLeftY 	pointLeftZ 		
2.505000 -48.109124 -141.144344 -0.000000 0.154559 0.442273 -0.148034 -46.099889 1093.342873 -0.000000 0.372790 0.213074 -0.380676
2.510000 -45.943932 -136.473753 -0.000000 0.159049 0.448751 -0.148467 -83.206299 1072.867499 -0.000000 0.368604 0.206981 -0.380690
2.515000 -54.686730 -126.483925 -0.000000 0.165354 0.455144 -0.147930 -22.578650 1052.151900 -0.000000 0.363997 0.201127 -0.380743
2.520000 -51.383555 -120.395938 -0.000000 0.169776 0.461479 -0.148800 -52.057908 1021.509763 -0.000000 0.359121 0.195475 -0.380817
2.525000 -59.725199 -108.210368 -0.000000 0.175433 0.467077 -0.149156 24.949214 987.013260 -0.000000 0.353912 0.190130 -0.380862
2.530000 -56.374569 -101.437845 -0.000000 0.181436 0.472599 -0.149478 -0.716846 946.114009 -0.000000 0.348317 0.185178 -0.380850
2.535000 -63.630958 -87.638131 -0.000000 0.187227 0.477733 -0.149493 72.549019 896.735207 -0.000000 0.342523 0.180536 -0.380826
2.540000 -61.916696 -78.984183 -0.000000 0.193581 0.482592 -0.149473 50.488191 847.137437 -0.000000 0.336439 0.176186 -0.380853
2.545000 -67.596580 -62.962643 -0.000000 0.200075 0.487126 -0.149702 101.157551 787.407346 -0.000000 0.330102 0.172167 -0.380860
2.550000 -68.220749 -50.572543 -0.000000 0.206727 0.491311 -0.150001 80.484468 731.942855 -0.000000 0.323517 0.168630 -0.380869
2.555000 -74.041101 -28.225343 -0.000000 0.213548 0.495151 -0.150289 134.435543 663.652359 -0.000000 0.316712 0.165339 -0.380912
2.560000 -76.449924 -11.035719 -0.000000 0.220528 0.498513 -0.150467 114.886126 606.499434 -0.000000 0.309282 0.162553 -0.380565
2.565000 -79.340636 15.218226 -0.000000 0.227734 0.501467 -0.150597 146.811676 538.118050 -0.000000 0.301938 0.160104 -0.380611
2.570000 -82.812054 36.424059 -0.000000 0.234732 0.503935 -0.150650 129.701599 482.315918 -0.000000 0.294352 0.158149 -0.380571
2.575000 -80.921799 67.485930 -0.000000 0.241869 0.505949 -0.150871 159.671222 413.212502 -0.000000 0.286931 0.156550 -0.380876
2.580000 -84.348887 90.889775 -0.000000 0.248940 0.507588 -0.151026 143.805065 361.484451 -0.000000 0.279063 0.155456 -0.380750
2.585000 -76.130659 123.597459 -0.000000 0.255888 0.508611 -0.150992 163.905993 295.784791 -0.000000 0.270974 0.154880 -0.380644
2.590000 -79.212360 148.447327 -0.000000 0.262678 0.509013 -0.150828 149.799909 249.384204 -0.000000 0.262750 0.154688 -0.380462
2.595000 -67.533406 181.039966 -0.000000 0.269259 0.508940 -0.150601 156.944191 191.966183 -0.000000 0.254413 0.155088 -0.380435
2.600000 -71.191162 208.531197 -0.000000 0.275880 0.508354 -0.150577 145.223685 151.747475 -0.000000 0.245996 0.155669 -0.380234
2.605000 -51.124502 244.781893 -0.000000 0.282220 0.507069 -0.150255 147.501700 99.528729 -0.000000 0.237557 0.156969 -0.379658
2.610000 -56.708206 277.061123 -0.000000 0.288404 0.505126 -0.149836 136.581074 67.368664 -0.000000 0.229296 0.158568 -0.379624
2.615000 -30.920630 317.371082 -0.000000 0.294386 0.502667 -0.149345 130.967791 24.857805 -0.000000 0.221190 0.160655 -0.379297
2.620000 -39.723494 356.113214 -0.000000 0.300232 0.499736 -0.148896 120.431806 1.790623 -0.000000 0.213072 0.163224 -0.379106
2.625000 -9.268946 400.763438 -0.000000 0.306077 0.496067 -0.148335 108.588914 -29.209155 -0.000000 0.205658 0.166099 -0.378333
2.630000 -24.221935 445.231881 -0.000000 0.311736 0.492097 -0.148101 98.823626 -42.853222 -0.000000 0.198308 0.169323 -0.377992
2.635000 -45.118918 490.357681 -0.000000 0.317549 0.487747 -0.147861 90.429308 -52.923053 -0.000000 0.191130 0.172915 -0.378108
2.640000 -16.103724 539.046805 -0.000000 0.323464 0.483056 -0.147788 76.610339 -68.264095 -0.000000 0.184090 0.177014 -0.377883
2.645000 17.197972 584.912360 -0.000000 0.329448 0.477971 -0.147812 62.278675 -79.048922 -0.000000 0.177315 0.181502 -0.377408
2.650000 -15.075061 628.696839 -0.000000 0.335400 0.472619 -0.147981 57.480746 -80.036132 -0.000000 0.170570 0.186473 -0.377033
2.655000 18.632577 669.301639 -0.000000 0.341282 0.466922 -0.148118 45.284281 -84.833841 -0.000000 0.164076 0.191758 -0.376731
2.660000 -23.685948 706.385851 -0.000000 0.346904 0.460788 -0.148363 43.745921 -82.585850 -0.000000 0.157897 0.197387 -0.376377
2.665000 7.441670 740.494794 -0.000000 0.352697 0.454333 -0.148393 34.799731 -83.498055 -0.000000 0.151951 0.203424 -0.376007
2.670000 -41.912164 769.990768 -0.000000 0.358207 0.447448 -0.148414 36.096809 -79.504798 -0.000000 0.146356 0.209864 -0.375705
2.675000 -9.863036 799.028507 -0.000000 0.363589 0.440313 -0.148449 30.135579 -78.655144 -0.000000 0.140731 0.216561 -0.375879
2.680000 -65.204082 822.349417 -0.000000 0.368824 0.432758 -0.148383 33.818798 -74.044313 -0.000000 0.135699 0.223583 -0.375979
2.685000 -33.301822 848.378475 -0.000000 0.373841 0.424980 -0.148318 30.547994 -72.817631 -0.000000 0.131058 0.230850 -0.375917
2.690000 -90.187005 866.881686 -0.000000 0.378575 0.416766 -0.148113 35.621672 -68.230683 -0.000000 0.126765 0.238393 -0.375883
2.695000 -53.029068 890.912738 -0.000000 0.383041 0.408378 -0.148013 33.807591 -67.365562 -0.000000 0.122885 0.245910 -0.375737
2.700000 -107.118861 905.350282 -0.000000 0.387291 0.399766 -0.147889 39.275436 -62.821486 -0.000000 0.119288 0.254144 -0.375899
2.705000 -63.843522 926.701899 -0.000000 0.391151 0.391236 -0.147831 38.214217 -62.225799 -0.000000 0.116179 0.262361 -0.376001
2.710000 -114.497214 937.106529 -0.000000 0.394736 0.382508 -0.147834 43.572079 -57.457375 -0.000000 0.113488 0.270730 -0.376014
2.715000 -66.604638 954.966606 -0.000000 0.398001 0.373531 -0.147850 42.879157 -57.013655 -0.000000 0.111200 0.279402 -0.376068
2.720000 -114.963299 962.061446 -0.000000 0.400928 0.364482 -0.147859 47.806603 -52.130449 -0.000000 0.109327 0.288179 -0.376154
2.725000 -66.587108 977.248574 -0.000000 0.403511 0.355312 -0.147886 47.211881 -52.118848 -0.000000 0.107942 0.297113 -0.376216
2.730000 -119.299265 982.506372 -0.000000 0.405781 0.346173 -0.147891 51.639001 -47.471887 -0.000000 0.106816 0.306155 -0.376231
2.735000 -63.546251 998.014971 -0.000000 0.407615 0.336881 -0.147815 50.355849 -48.897829 -0.000000 0.106312 0.315325 -0.376377
2.740000 -118.528931 1003.832496 -0.000000 0.408996 0.327680 -0.147679 53.961929 -45.217786 -0.000000 0.106295 0.324580 -0.376463
2.745000 -69.526296 1019.887130 -0.000000 0.409975 0.318416 -0.147564 52.244706 -47.644081 -0.000000 0.106746 0.333866 -0.376610
2.750000 -126.229653 1026.784920 -0.000000 0.410571 0.309085 -0.147411 54.784485 -45.205921 -0.000000 0.107728 0.343223 -0.376747
2.755000 -61.341613 1045.822156 -0.000000 0.410724 0.299720 -0.148113 51.115139 -49.666380 -0.000000 0.109050 0.352491 -0.376775
2.760000 -118.759836 1054.737211 -0.000000 0.410339 0.290271 -0.148020 52.341815 -48.490174 -0.000000 0.110986 0.362200 -0.376889
2.765000 -67.533758 1073.300038 -0.000000 0.409300 0.281055 -0.147262 47.653866 -52.924862 -0.000000 0.113255 0.371292 -0.377016
2.770000 -123.522852 1081.989327 -0.000000 0.407765 0.272083 -0.147182 47.362852 -52.717843 -0.000000 0.116014 0.380388 -0.377078
2.775000 -68.793386 1099.289952 -0.000000 0.405774 0.262939 -0.147069 40.833975 -57.355443 -0.000000 0.119230 0.389511 -0.377124
2.780000 -121.511426 1105.305106 -0.000000 0.403294 0.253960 -0.146809 39.193211 -58.064063 -0.000000 0.123290 0.398454 -0.377068
2.785000 -51.818615 1118.713504 -0.000000 0.400372 0.245315 -0.146646 30.443684 -63.167611 -0.000000 0.127434 0.407226 -0.377210
2.790000 -99.186031 1120.282069 -0.000000 0.397074 0.236862 -0.146580 27.755774 -65.339853 -0.000000 0.132031 0.415812 -0.377606
2.795000 -5.472573 1125.626764 -0.000000 0.393361 0.228642 -0.146231 16.267057 -71.257544 -0.000000 0.137009 0.424231 -0.377767
2.800000 -50.865703 1121.184931 -0.000000 0.389009 0.220654 -0.146082 13.147740 -75.650617 -0.000000 0.142529 0.432465 -0.377263
2.805000 19.991153 1114.218633 -0.000000 0.384342 0.213159 -0.145859 1.859593 -82.254090 -0.000000 0.147395 0.440241 -0.376354
2.810000 -21.153913 1101.433818 -0.000000 0.379257 0.205818 -0.145590 -1.357614 -89.557184 -0.000000 0.153176 0.448127 -0.376279
2.815000 48.571212 1082.952771 -0.000000 0.373807 0.199004 -0.145414 -13.786517 -97.456399 -0.000000 0.160988 0.455422 -0.376681
2.820000 11.141440 1061.672240 -0.000000 0.368065 0.192677 -0.145213 -16.688141 -107.089105 -0.000000 0.167867 0.462741 -0.376971
2.825000 105.887542 1029.494142 -0.000000 0.361983 0.186610 -0.144987 -33.326874 -114.063897 -0.000000 0.174501 0.469049 -0.377080
2.830000 71.362266 1001.372039 -0.000000 0.355703 0.181001 -0.144861 -36.009770 -124.016177 -0.000000 0.181345 0.474875 -0.377177
2.835000 136.005574 959.394404 -0.000000 0.349130 0.175736 -0.144802 -51.004533 -128.882854 -0.000000 0.188688 0.480473 -0.377293
2.840000 102.763139 924.709791 -0.000000 0.342397 0.170899 -0.144710 -52.834003 -136.669935 -0.000000 0.196370 0.485677 -0.377256
2.845000 161.640767 873.500056 -0.000000 0.335479 0.166642 -0.144530 -68.053339 -136.170336 -0.000000 0.203991 0.490471 -0.377368
2.850000 129.891260 832.816929 -0.000000 0.328376 0.162839 -0.144338 -68.870985 -139.049199 -0.000000 0.211780 0.494776 -0.377232
2.855000 193.087690 770.383916 -0.000000 0.321144 0.159515 -0.144062 -84.989298 -129.628907 -0.000000 0.219915 0.498547 -0.377402
2.860000 164.634136 724.077959 -0.000000 0.313660 0.156674 -0.143784 -85.083472 -125.531859 -0.000000 0.228027 0.501872 -0.377371
2.865000 209.274268 655.723153 -0.000000 0.306067 0.154416 -0.143525 -96.868314 -108.272537 -0.000000 0.236198 0.504488 -0.377408
2.870000 181.058089 605.528901 -0.000000 0.298254 0.152739 -0.143270 -95.636251 -97.210804 -0.000000 0.244362 0.506513 -0.377486
2.875000 214.928148 532.705405 -0.000000 0.290252 0.151519 -0.143026 -103.058852 -72.068932 -0.000000 0.252565 0.508014 -0.377603
2.880000 188.996994 480.612838 -0.000000 0.282037 0.150881 -0.142872 -101.090501 -54.420721 -0.000000 0.260663 0.509023 -0.377745
2.885000 216.014644 405.030241 -0.000000 0.273757 0.150941 -0.142802 -103.329511 -21.769228 -0.000000 0.268679 0.509365 -0.377869
